# xmcd
# 
# Track frame offsets:
#     150
#     13095
#     29860
#     43975
#     60835
#     79900
#     90480
#     114732
#     130167
#     148640
#     165352
#     181715
#     199112
#     215670
#     228060
#     242207
# 
# Disc length: 3414
# 
# Revision: 1
# Processed by: cddbd v1.5.2PL0 Copyright (c) Steve Scherf et al.
# Submitted via: BonkEnc v1.0rc1
# 
DISCID=d80d5410
DTITLE=Various Artist - Super-Stimmungs-Hitparade
DYEAR=1988
DGENRE=Stimmung
TTITLE0=Jürgen von der Lippe - Guten Morgen liebe Sorgen
TTITLE1=Mike Krüger - Der Nippel
TTITLE2=Stephan Remmler - Keine Sterne in Athen
TTITLE3=Von den Paradiesvögeln - Heute geh'n wir nicht nach Hause
TTITLE4=Gottlieb Wendehals - Polonäse Blankenese
TTITLE5=Klaus and Klaus - Rum-Buddel-Rum (Whiskey in the Jar)
TTITLE6=Frank Zander - Jeannie (die reine Wahrheit)
TTITLE7=Gebrüder Blattschuss - Kreuzberger Nächte
TTITLE8=Paradiesvögel - Küß die Hand, schöne Frau
TTITLE9=Gottlieb Wendehals - Alles hat ein Ende nur die Wurst hat zwei
TTITLE10=Jürgen von der Lippe - Dann ist der Wurm drin
TTITLE11=Tony Marshall - Wir sind die Champions (olé, olé,olé)
TTITLE12=Klaus and Klaus - An der Nordseeküste
TTITLE13=Mike Krüger - 20 Pfennig
TTITLE14=Karl Dall - Millionen Frauen lieben mich
TTITLE15=Fred Sonnenschein und seine Freunde - Ja, wenn wir alle Englein wären (Dance little bird)
EXTD=
EXTT0=
EXTT1=
EXTT2=
EXTT3=
EXTT4=
EXTT5=
EXTT6=
EXTT7=
EXTT8=
EXTT9=
EXTT10=
EXTT11=
EXTT12=
EXTT13=
EXTT14=
EXTT15=
PLAYORDER=
